<svg width="49" height="40" xmlns="http://www.w3.org/2000/svg">
    <g fill="none">
        <path
            d="M1.514 0C.68 0 0 .68 0 1.516v27.99c0 .837.68 1.517 1.514 1.517h13.287l.175.814a2.18 2.18 0 001.74 1.677A4.37 4.37 0 0020.528 40a4.37 4.37 0 003.832-6.452h3.622A4.37 4.37 0 0031.813 40a4.37 4.37 0 003.825-6.465c.92-.095 1.7-.78 1.897-1.698l4.713-21.962h5.454v19.632c0 .12-.097.216-.216.216h-7.072a.65.65 0 000 1.3h7.072c.835 0 1.514-.68 1.514-1.516V1.516C49 .68 48.32 0 47.486 0H1.514zm19.014 38.7a3.07 3.07 0 01-3.064-3.067 3.07 3.07 0 013.064-3.067 3.07 3.07 0 013.064 3.067 3.07 3.07 0 01-3.064 3.068zm11.286 0a3.07 3.07 0 01-3.064-3.067 3.07 3.07 0 013.064-3.067 3.07 3.07 0 013.064 3.067 3.07 3.07 0 01-3.064 3.068zM45.856 8.577a2.167 2.167 0 00-1.455-3.767h-2.04a4.293 4.293 0 00-4.175 3.376l-.084.39h-6.128a.65.65 0 000 1.3h5.85l-.66 3.07H13.6c-.657 0-1.27.293-1.683.804a2.158 2.158 0 00-.432 1.816l1.6 7.456a.65.65 0 101.269-.273l-1.6-7.456a.864.864 0 01.846-1.048h24.09a.65.65 0 00.635-.513l1.131-5.273a2.988 2.988 0 012.905-2.35h2.042a.867.867 0 010 1.733H42.36c-.58 0-1.09.412-1.213.98l-4.88 22.743a.87.87 0 01-.847.684h-.854a4.339 4.339 0 00-2.752-.982c-1.043 0-2 .369-2.752.982H23.28a4.339 4.339 0 00-2.752-.982c-1.042 0-2 .369-2.752.982h-.685a.87.87 0 01-.846-.684l-1.332-6.206a.65.65 0 10-1.269.273l.879 4.092H1.514a.217.217 0 01-.216-.216V9.875h27.674a.65.65 0 000-1.3H1.298v-7.06c0-.119.097-.216.216-.216h45.972c.12 0 .216.097.216.217v7.06h-1.846z"
            fill="#fff" />
        <ellipse fill="#fff" cx="4.374" cy="5.112" rx="1.193" ry="1.194" />
        <ellipse fill="#fff" cx="7.555" cy="5.112" rx="1.193" ry="1.194" />
        <ellipse fill="#fff" cx="10.736" cy="5.112" rx="1.193" ry="1.194" />
        <path
            d="M28.08 26.824h-3.817a.648.648 0 00-.647.703l.197 2.392a.65.65 0 00.646.597h3.424a.65.65 0 00.647-.597l.196-2.392a.65.65 0 00-.646-.703zm-.795 2.392h-2.228l-.09-1.092h2.408l-.09 1.092zM15.352 19.155a.65.65 0 00.634.513h4.542a.653.653 0 00.647-.703l-.197-2.392a.65.65 0 00-.647-.597h-4.858a.654.654 0 00-.635.786l.514 2.393zm4.382-1.88l.09 1.093H16.51l-.235-1.092h3.458zm-1.933 9.549a.649.649 0 00-.634.786l.513 2.392a.65.65 0 00.635.514h3.105a.648.648 0 00.647-.703l-.197-2.392a.65.65 0 00-.646-.597H17.8zm1.038 2.392l-.235-1.092h2.022l.09 1.092h-1.877zM16.637 21.4a.649.649 0 00-.634.786l.513 2.393a.65.65 0 00.634.513h3.824a.648.648 0 00.647-.703l-.197-2.392a.65.65 0 00-.646-.597h-4.14zm1.038 2.392L17.44 22.7h2.74l.09 1.092h-2.595zm5.245-4.721a.65.65 0 00.647.597h5.208a.65.65 0 00.647-.597l.196-2.392a.653.653 0 00-.646-.703H23.37a.653.653 0 00-.647.703l.197 2.392zm5.347-1.795l-.09 1.092h-4.012l-.09-1.092h4.192zm3.101 7.816h3.993a.65.65 0 00.634-.514l.514-2.392a.65.65 0 00-.635-.786h-4.31a.65.65 0 00-.646.597l-.197 2.392a.65.65 0 00.647.703zm.794-2.392h2.909l-.235 1.092h-2.764l.09-1.092zm-.348-3.032h4.71a.65.65 0 00.635-.513l.514-2.393a.654.654 0 00-.635-.786h-5.027a.65.65 0 00-.647.597l-.197 2.392a.653.653 0 00.647.703zm.794-2.392h3.627L36 18.368h-3.48l.09-1.092zM28.526 21.4h-4.71a.648.648 0 00-.646.703l.196 2.392a.65.65 0 00.647.597h4.316a.65.65 0 00.647-.597l.196-2.392a.65.65 0 00-.646-.703zm-.795 2.392h-3.12l-.09-1.092h3.3l-.09 1.092zm3.191 6.724h3.275a.65.65 0 00.634-.514l.514-2.392a.65.65 0 00-.635-.786h-3.591a.65.65 0 00-.647.597l-.197 2.392a.65.65 0 00.647.703zm.794-2.392h2.19l-.234 1.092h-2.046l.09-1.092z"
            fill="#7e0fe6" />
        <path
            d="M20.528 34.518a1.115 1.115 0 10.001 2.229 1.115 1.115 0 000-2.229zm11.286 0a1.115 1.115 0 10.001 2.229 1.115 1.115 0 00-.001-2.229z"
            fill="#fff" />
    </g>
</svg>