<svg width="65" height="62" xmlns="http://www.w3.org/2000/svg">
    <g fill="none">
        <path
            d="M64.261 46.931H.74a.734.734 0 01-.74-.743c0-.416.325-.743.739-.743H64.26c.414 0 .739.327.739.743a.734.734 0 01-.739.743z"
            fill="#fff" />
        <path
            d="M59.697 53.128H5.303C2.378 53.128 0 50.735 0 47.793V14.876C0 11.933 2.378 9.54 5.303 9.54h5.969c.413 0 .738.327.738.743a.734.734 0 01-.738.743H5.303c-2.112 0-3.826 1.724-3.826 3.849v32.917c0 2.125 1.714 3.849 3.826 3.849h54.394c2.112 0 3.826-1.724 3.826-3.85V14.877c0-2.125-1.714-3.85-3.826-3.85h-5.969a.734.734 0 01-.738-.742c0-.416.325-.743.738-.743h5.969c2.925 0 5.303 2.392 5.303 5.335v32.917c0 2.942-2.378 5.335-5.303 5.335z"
            fill="#fff" />
        <path
            d="M38.276 62a.736.736 0 01-.65-.401c-1.64-3.136-1.64-6.272 0-9.556a.719.719 0 01.99-.327c.37.179.517.624.325.996-1.433 2.868-1.433 5.469 0 8.203a.76.76 0 01-.31 1.01 1.01 1.01 0 01-.355.075zm-11.552 0a.756.756 0 01-.65-1.1c1.418-2.72 1.418-5.335 0-8.203a.753.753 0 01.325-.996.744.744 0 01.99.327c1.64 3.285 1.64 6.42 0 9.556a.762.762 0 01-.665.416z"
            fill="#fff" />
        <path
            d="M41.777 62H23.223a.734.734 0 01-.739-.743c0-.416.325-.743.739-.743h18.569c.414 0 .739.327.739.743s-.34.743-.754.743zm9.691-19.87H13.547a3.026 3.026 0 01-3.014-3.03V3.031C10.533 1.367 11.877 0 13.547 0h37.921a3.026 3.026 0 013.014 3.032v36.067c-.015 1.665-1.36 3.032-3.014 3.032zM13.547 1.487a1.55 1.55 0 00-1.537 1.546V39.1a1.55 1.55 0 001.537 1.546h37.921a1.55 1.55 0 001.537-1.546V3.032a1.55 1.55 0 00-1.537-1.546H13.547z"
            fill="#fff" />
        <path
            d="M53.728 10.105H11.272a.734.734 0 01-.739-.743c0-.416.325-.743.739-.743h42.471c.414 0 .739.327.739.743 0 .417-.34.743-.754.743zm-36.99-2.764a2.283 2.283 0 01-2.275-2.288 2.283 2.283 0 012.275-2.289 2.283 2.283 0 012.274 2.289 2.283 2.283 0 01-2.274 2.288zm0-3.09a.797.797 0 00-.798.802.797.797 0 101.595 0 .797.797 0 00-.797-.803zm6.115 3.09a2.283 2.283 0 01-2.275-2.288 2.283 2.283 0 012.275-2.289 2.283 2.283 0 012.275 2.289 2.283 2.283 0 01-2.275 2.288zm0-3.09a.797.797 0 00-.797.802.797.797 0 101.595 0 .797.797 0 00-.798-.803zm6.117 3.09a2.283 2.283 0 01-2.276-2.288 2.283 2.283 0 012.275-2.289 2.283 2.283 0 012.275 2.289A2.283 2.283 0 0128.97 7.34zm0-3.09a.797.797 0 00-.798.802.797.797 0 101.595 0 .797.797 0 00-.798-.803zm14.61 1.545h-9.248a.734.734 0 01-.739-.743c0-.416.325-.743.739-.743h9.248c.413 0 .738.327.738.743s-.34.743-.738.743zm6.293 0h-2.556a.734.734 0 01-.739-.743c0-.416.325-.743.739-.743h2.556c.413 0 .738.327.738.743a.734.734 0 01-.738.743z"
            fill="#fff" />
        <path
            d="M48.602 7.089a.734.734 0 01-.738-.743V3.775c0-.416.325-.743.738-.743.414 0 .739.327.739.743v2.57c0 .402-.34.744-.739.744zm5.126 12.067H29.191a.734.734 0 01-.739-.743c0-.416.325-.743.739-.743h24.552c.414 0 .739.327.739.743s-.34.743-.754.743zm-37.3 0h-5.171a.734.734 0 01-.739-.743c0-.416.325-.743.739-.743h5.17c.414 0 .739.327.739.743a.734.734 0 01-.739.743z"
            fill="#fff" />
        <path
            d="M22.81 25.576c-3.93 0-7.121-3.21-7.121-7.163 0-3.953 3.19-7.163 7.12-7.163s7.12 3.21 7.12 7.163c0 3.953-3.19 7.163-7.12 7.163zm0-12.825c-3.103 0-5.644 2.54-5.644 5.677 0 3.135 2.526 5.677 5.643 5.677s5.643-2.542 5.643-5.677c0-3.136-2.54-5.677-5.643-5.677z"
            fill="#fff" />
        <path
            d="M18.51 23.896a.683.683 0 01-.34-.089.73.73 0 01-.31-.995 5.538 5.538 0 014.846-3.017h.192a5.56 5.56 0 014.86 3.017.738.738 0 01-.31.995.73.73 0 01-.99-.312 4.117 4.117 0 00-3.575-2.214h-.133a4.077 4.077 0 00-3.56 2.214.8.8 0 01-.68.401z"
            fill="#fff" />
        <path
            d="M22.81 21.28c-1.818 0-3.28-1.485-3.28-3.298s1.477-3.3 3.28-3.3c1.801 0 3.279 1.487 3.279 3.3 0 1.813-1.478 3.299-3.28 3.299zm0-5.126c-.99 0-1.803.817-1.803 1.813s.812 1.813 1.802 1.813 1.802-.817 1.802-1.813-.812-1.813-1.802-1.813z"
            fill="#fff" />
        <path
            d="M47.583 38.341h-13.03c-1.758 0-3.19-1.441-3.19-3.21v-4.19c0-1.769 1.432-3.21 3.19-3.21h13.03c1.758 0 3.19 1.441 3.19 3.21v4.19c0 1.769-1.432 3.21-3.19 3.21zm-13.03-9.11a1.72 1.72 0 00-1.713 1.724v4.191a1.72 1.72 0 001.713 1.724h13.03a1.72 1.72 0 001.714-1.724v-4.19a1.72 1.72 0 00-1.714-1.724h-13.03zm13.665-4.696h-14.3a.734.734 0 01-.738-.743c0-.416.325-.743.738-.743h14.3c.414 0 .739.327.739.743a.734.734 0 01-.739.743z"
            fill="#7e0fe6" />
    </g>
</svg>