<svg width="61" height="61" xmlns="http://www.w3.org/2000/svg">
    <g fill="none">
        <path
            d="M57.95 0H3.05A3.05 3.05 0 000 3.05v44.733a3.05 3.05 0 003.05 3.05h20.232c-.6 3.282-3.987 4.049-4.169 4.087a4.06 4.06 0 00-3.863 4.047c0 1.123.91 2.033 2.033 2.033h26.434c1.123 0 2.033-.91 2.033-2.033a4.067 4.067 0 00-3.863-4.047c-.16-.032-3.573-.765-4.169-4.087H57.95a3.05 3.05 0 003.05-3.05V3.05A3.05 3.05 0 0057.95 0zM3.05 2.033h54.9c.561 0 1.017.456 1.017 1.017V42.7H2.033V3.05c0-.561.456-1.017 1.017-1.017zm40.667 56.934H17.283c0-1.123.91-2.034 2.034-2.034h22.366a2.038 2.038 0 012.034 2.034zM37.7 54.9H23.298a6.71 6.71 0 002.048-4.067h10.308a6.71 6.71 0 002.048 4.067H37.7zm20.25-6.1H3.05a1.017 1.017 0 01-1.017-1.017v-3.05h56.934v3.05c0 .562-.456 1.017-1.017 1.017z"
            fill="#fff" />
        <path
            d="M6.1 40.667h48.8c1.123 0 2.033-.91 2.033-2.034V6.1c0-1.123-.91-2.033-2.033-2.033H6.1c-1.123 0-2.033.91-2.033 2.033v32.533c0 1.123.91 2.034 2.033 2.034zm12.438-9.18l-1.25-2.972c.313-.378.652-.74.983-1.08.356-.36.74-.691 1.146-.993l2.92 1.246c.3.128.644.104.924-.064a13.892 13.892 0 013.858-1.597c.318-.079.579-.306.7-.61l1.213-2.983a11.955 11.955 0 012.972.037l1.177 2.946c.121.304.382.531.7.61 1.36.336 2.66.875 3.858 1.6.28.169.623.192.924.064l2.972-1.25c.378.314.74.652 1.08.983.36.356.692.739.993 1.146l-1.246 2.92c-.128.3-.104.645.064.924a13.892 13.892 0 011.597 3.855c.079.318.306.579.61.7l2.983 1.213c.014.143.022.299.032.451h-5.1a12.19 12.19 0 00-24.298 0h-5.084c.016-.164.028-.33.055-.489l2.946-1.175c.304-.121.531-.382.61-.7.336-1.36.875-2.66 1.6-3.858.168-.28.19-.624.06-.924zm22.077 7.146H20.383a10.167 10.167 0 0120.232 0zM6.1 6.1h48.8v32.533h-5.112a16.6 16.6 0 00-.045-.641 2.098 2.098 0 00-1.306-1.735l-2.471-.987a15.897 15.897 0 00-1.434-3.456l1.045-2.45a2.047 2.047 0 00-.299-2.147 19.526 19.526 0 00-1.126-1.237c-.456-.445-.843-.8-1.21-1.101a2.05 2.05 0 00-2.157-.305l-2.452 1.046a15.897 15.897 0 00-3.456-1.434l-.988-2.474a2.094 2.094 0 00-1.723-1.302 18.945 18.945 0 00-3.327 0 2.098 2.098 0 00-1.735 1.306l-.987 2.472c-1.204.34-2.365.82-3.457 1.433l-2.443-1.048a2.047 2.047 0 00-2.147.299c-.379.312-.766.666-1.237 1.126-.445.456-.8.843-1.101 1.21a2.052 2.052 0 00-.305 2.157l1.043 2.457a15.897 15.897 0 00-1.433 3.456l-2.475.989a2.09 2.09 0 00-1.302 1.722c-.02.21-.034.43-.046.655H6.1V6.1z"
            fill="#7e0fe6" />
        <path
            d="M21.35 18.3a3.05 3.05 0 003.05-3.05 1.017 1.017 0 00-2.033 0 1.017 1.017 0 01-2.034 0v-4.067a1.017 1.017 0 012.034 0 1.017 1.017 0 102.033 0 3.05 3.05 0 00-6.1 0v4.067a3.05 3.05 0 003.05 3.05zm6.1 0c.561 0 1.017-.455 1.017-1.017v-6.1l.813 1.085a1.57 1.57 0 002.44 0l.813-1.085v6.1a1.017 1.017 0 002.034 0V9.658a1.525 1.525 0 00-2.745-.915L30.5 10.507l-1.322-1.764a1.525 1.525 0 00-2.745.915v7.625c0 .562.456 1.017 1.017 1.017zm12.2-4.067a1.017 1.017 0 11-.881 1.525 1.017 1.017 0 00-1.76 1.017A3.05 3.05 0 1039.65 12.2a1.017 1.017 0 11.881-1.525 1.017 1.017 0 001.76-1.017 3.05 3.05 0 10-2.641 4.575zM14.233 18.3a1.017 1.017 0 000-2.033h-4.066a1.017 1.017 0 100 2.033h4.066zm32.534 0h4.066a1.017 1.017 0 000-2.033h-4.066a1.017 1.017 0 100 2.033z"
            fill="#fff" />
    </g>
</svg>