<svg width="52" height="52" xmlns="http://www.w3.org/2000/svg">
    <g fill="none">
        <path
            d="M49.4 0H2.6A2.608 2.608 0 000 2.6v46.8A2.608 2.608 0 002.6 52h46.8a2.608 2.608 0 002.6-2.6V2.6A2.608 2.608 0 0049.4 0zM32.933 50.267h-26V12.133H26V18.2c0 .479.388.867.867.867h6.066v31.2zm-5.2-32.934v-3.978l3.978 3.978h-3.978zM50.267 49.4a.867.867 0 01-.867.867H34.667V18.2a.895.895 0 00-.252-.615l-6.933-6.934a.895.895 0 00-.615-.251h-20.8a.867.867 0 00-.867.867v39H2.6a.867.867 0 01-.867-.867V8.667h48.534V49.4zm0-42.467H1.733V2.6c0-.479.388-.867.867-.867h46.8c.479 0 .867.388.867.867v4.333z"
            fill="#fff" />
        <path
            d="M5.2 3.467h-.867a.867.867 0 100 1.733H5.2a.867.867 0 000-1.733zm3.467 0H7.8a.867.867 0 100 1.733h.867a.867.867 0 000-1.733zm3.466 0h-.866a.867.867 0 100 1.733h.866a.867.867 0 100-1.733z"
            fill="#fff" />
        <path
            d="M20.079 20.414a.867.867 0 001.202.24l2.6-1.733a.867.867 0 000-1.442l-2.6-1.733a.867.867 0 00-.962 1.442L21.84 18.2l-1.518 1.012a.867.867 0 00-.243 1.202zm-8.091 0a.867.867 0 01-1.202.24l-2.6-1.733a.867.867 0 010-1.442l2.6-1.733a.867.867 0 11.962 1.442L10.227 18.2l1.518 1.012a.867.867 0 01.243 1.202zm2.312 1.138a.856.856 0 00.433.115.87.87 0 00.753-.434l3.467-6.066a.867.867 0 10-1.504-.86l-3.467 6.067a.867.867 0 00.318 1.178z"
            fill="#7e0fe6" />
        <path
            d="M12.133 24.267c0 .478.388.866.867.866h1.733a.867.867 0 100-1.733H13a.867.867 0 00-.867.867zM26 27.733a.867.867 0 00-.867-.866H13a.867.867 0 100 1.733h12.133a.867.867 0 00.867-.867zm4.333-4.333H18.2a.867.867 0 000 1.733h12.133a.867.867 0 100-1.733zm-18.2 11.267c0 .478.388.866.867.866h6.933a.867.867 0 100-1.733H13a.867.867 0 00-.867.867zm18.2-7.8H28.6a.867.867 0 100 1.733h1.733a.867.867 0 000-1.733zM20.8 38.133a.867.867 0 00-.867-.866H13A.867.867 0 1013 39h6.933a.867.867 0 00.867-.867zm4.333-.866H23.4a.867.867 0 100 1.733h1.733a.867.867 0 000-1.733zm-10.4-6.934H13a.867.867 0 000 1.734h1.733a.867.867 0 000-1.734zm15.6 0H18.2a.867.867 0 000 1.734h12.133a.867.867 0 000-1.734zM47.667 3.467H17.333a.867.867 0 000 1.733h30.334a.867.867 0 000-1.733z"
            fill="#fff" />
        <path
            d="M38.133 16.733v21.734a.871.871 0 00.096.39l3.466 6.933a.867.867 0 001.543 0l3.467-6.933a.867.867 0 00.095-.39V16.733a4.333 4.333 0 00-8.667 0zm1.734 6.067h1.716l.017 11.845-1.733 1.733V22.8zm2.6 20.659l-.72-1.439a3.356 3.356 0 011.439 0l-.72 1.439zm1.516-3.025a5.314 5.314 0 00-3.033 0l-.893-1.794 2.41-2.418 2.409 2.418-.893 1.794zm1.084-4.056l-1.734-1.733-.017-11.845h1.75v13.578zm0-15.311h-5.2v-1.734h5.2v1.734zm0-3.467h-5.2v-.867a2.6 2.6 0 115.2 0v.867z"
            fill="#7e0fe6" />
    </g>
</svg>