<svg width="68" height="68" xmlns="http://www.w3.org/2000/svg">
    <g transform="translate(1 1)" fill="none">
        <path
            d="M64.551 12.913l-2.994-.735a11.439 11.439 0 00-1.406-3.385l1.598-2.64a.867.867 0 00-.128-1.054l-1.513-1.512a.87.87 0 00-1.054-.127l-2.642 1.596a11.458 11.458 0 00-3.388-1.405L52.289.66a.874.874 0 00-.842-.66h-2.141a.845.845 0 00-.831.65l-.736 2.99a11.458 11.458 0 00-3.387 1.406l-2.643-1.597a.87.87 0 00-1.054.128L39.12 5.099a.867.867 0 00-.128 1.054l1.598 2.64a11.439 11.439 0 00-1.406 3.385l-2.994.735a.854.854 0 00-.65.83v2.14c0 .393.266.745.65.83l2.994.734a11.26 11.26 0 001.406 3.375l-1.598 2.64a.867.867 0 00.128 1.054l1.512 1.511a.87.87 0 001.055.128l2.642-1.597a11.458 11.458 0 003.388 1.406l.735 2.99c.096.384.437.65.831.65h2.142a.845.845 0 00.83-.65l.736-2.99a11.458 11.458 0 003.388-1.406l2.642 1.597a.87.87 0 001.055-.128l1.512-1.511a.867.867 0 00.128-1.054l-1.598-2.64a11.495 11.495 0 001.406-3.375l2.994-.734a.854.854 0 00.65-.83v-2.14a.794.794 0 00-.618-.83h0zm-14.18 8.111a6.208 6.208 0 01-6.211-6.206 6.208 6.208 0 016.21-6.206 6.208 6.208 0 016.212 6.206 6.208 6.208 0 01-6.211 6.206z"
            stroke="#fff" stroke-width="1.5"  />
        <path
            d="M52.619 18.97a2.14 2.14 0 00-2.142-2.14H2.141A2.14 2.14 0 000 18.97v29.135h52.619V18.97z"
            stroke="#fff" stroke-width="1.5"  />
        <path d="M0 48.105v7.037a2.14 2.14 0 002.141 2.14h48.336a2.14 2.14 0 002.142-2.14v-7.037H0z"
            stroke="#fff" stroke-width="1.5"  />
        <path stroke="#fff" stroke-width="1.5"  d="M18.474 57.282h15.671v4.439H18.474z" />
        <path
            d="M38.545 61.72h-24.46a2.14 2.14 0 00-2.142 2.14V66h28.744v-2.14a2.14 2.14 0 00-2.142-2.14z"
            stroke="#fff" stroke-width="1.5"  />
        <path
            d="M63.848 29.253h-31.29a2.14 2.14 0 00-2.142 2.14v4.918H66v-4.918a2.157 2.157 0 00-2.152-2.14h0z"
            stroke="#fff" stroke-width="1.5"  />
        <path
            d="M8.992 34.831a1.09 1.09 0 01-.757-.309l-3.622-3.62a1.053 1.053 0 01-.309-.755c0-.287.117-.553.31-.756l3.621-3.62a1.062 1.062 0 111.503 1.502L6.86 30.147l2.877 2.874a1.06 1.06 0 010 1.501c-.203.213-.48.309-.746.309zm10.952 0a1.09 1.09 0 01-.757-.309 1.06 1.06 0 010-1.5l2.877-2.875-2.877-2.874a1.062 1.062 0 111.502-1.501l3.623 3.62c.202.202.309.468.309.755 0 .288-.117.554-.31.756l-3.621 3.62a1.006 1.006 0 01-.746.308zM11.25 38.11a1.057 1.057 0 01-.959-1.512l6.435-13.785a1.06 1.06 0 011.417-.511c.533.244.767.883.512 1.415L12.22 37.503a1.085 1.085 0 01-.97.607z"
            fill="#7e0fe6" />
        <path
            d="M30.416 36.321v27.54A2.14 2.14 0 0032.558 66h31.3A2.14 2.14 0 0066 63.86V36.321H30.416z"
            stroke="#fff"  />
        <path
            d="M60.641 40.6H35.765a1.07 1.07 0 00-1.066 1.065v9.879c0 .585.48 1.064 1.066 1.064H60.64c.586 0 1.066-.479 1.066-1.064v-9.879c0-.596-.47-1.064-1.066-1.064z"
            stroke="#7e0fe6" stroke-width="1.5"  />
        <g transform="translate(33.91 31.712)" fill="#fff">
            <ellipse cx="1.076" cy="1.075" rx="1.076" ry="1.075" />
            <ellipse cx="4.933" cy="1.075" rx="1.076" ry="1.075" />
            <ellipse cx="8.789" cy="1.075" rx="1.076" ry="1.075" />
        </g>
        <path
            d="M41.399 57H35.6c-.33 0-.601-.225-.601-.5s.27-.5.601-.5h5.8c.33 0 .601.225.601.5s-.27.5-.601.5zm-3.004 3h-2.79c-.333 0-.605-.225-.605-.5s.272-.5.605-.5h2.79c.333 0 .605.225.605.5s-.272.5-.605.5zm13.004-3H45.6c-.33 0-.601-.225-.601-.5s.27-.5.601-.5h5.8c.33 0 .601.225.601.5s-.265.5-.601.5zm-4.004 3h-2.79c-.333 0-.605-.225-.605-.5s.272-.5.605-.5h2.79c.333 0 .605.225.605.5s-.266.5-.605.5z"
            fill="#7e0fe6" />
        <ellipse fill="#FFF" cx="26.315" cy="52.694" rx="1.076" ry="1.075" />
    </g>
</svg>