<svg width="56" height="48" xmlns="http://www.w3.org/2000/svg">
    <g fill="none">
        <path
            d="M55.175 36.395a.824.824 0 00-.825.823v.705c0 .635-.518 1.151-1.155 1.151h-3.08V19.808a2.804 2.804 0 00-2.805-2.797H8.69a2.804 2.804 0 00-2.806 2.797v19.266H2.805a1.155 1.155 0 01-1.155-1.151V16.645a.824.824 0 00-.825-.822.824.824 0 00-.825.822v21.278a2.804 2.804 0 002.805 2.796h3.08v4.42a2.804 2.804 0 002.804 2.796H47.31a2.804 2.804 0 002.806-2.796v-4.42h3.079A2.804 2.804 0 0056 37.923v-.705a.824.824 0 00-.825-.823zm-36.754-1.32c-1.832-1.058-3.014-3.012-3.086-5.098a6.146 6.146 0 012.582-5.215v3.542c0 .335.177.644.48.831l2.521 1.516c.34.206.796.206 1.133.002l2.53-1.522a.97.97 0 00.474-.827V24.76a6.083 6.083 0 012.586 5.001 6.156 6.156 0 01-3.09 5.32 1.045 1.045 0 00-.521.901V46.29h-5.087V35.977c0-.37-.2-.715-.522-.902zm18.218-5.304l-.614-2.781v-2.683h2.624v2.683l-.613 2.774a1.402 1.402 0 00-.036.315v7.23h-1.327v-7.23c0-.106-.012-.212-.034-.308zm4.03 9.184v2.443h-6.664v-2.443h6.664zm-1.653 4.088v3.247h-3.359v-3.247h3.359zm9.45 2.096c0 .635-.519 1.151-1.156 1.151h-6.644v-3.247h.278c.758 0 1.375-.615 1.375-1.371V38.68c0-.756-.617-1.371-1.375-1.371H39.65v-7.205l.613-2.774a1.4 1.4 0 00.036-.315v-2.983c0-.756-.592-1.37-1.32-1.37h-3.285c-.728 0-1.32.614-1.32 1.37v2.983c0 .106.013.212.035.307l.614 2.782v7.205H33.73c-.759 0-1.376.615-1.376 1.37v2.992c0 .756.617 1.37 1.376 1.37h.277v3.248H25.68v-9.968a7.802 7.802 0 003.611-6.56 7.728 7.728 0 00-4.382-6.994 1.041 1.041 0 00-1.012.053 1.035 1.035 0 00-.492.884v4.213l-1.919 1.153-1.918-1.153v-4.213c0-.362-.184-.693-.492-.884a1.042 1.042 0 00-1.012-.053 7.792 7.792 0 00-4.378 7.266c.088 2.57 1.43 4.894 3.607 6.282v9.974H8.689a1.155 1.155 0 01-1.155-1.151v-25.33c0-.635.518-1.152 1.155-1.152H47.31c.637 0 1.155.517 1.155 1.152v25.33z"
            fill="#7e0fe6" />
        <path
            d="M53.195 0H2.805A2.804 2.804 0 000 2.796v10.011c0 .455.37.823.825.823a.824.824 0 00.825-.823V9.893h52.7V33.38c0 .454.37.822.825.822A.824.824 0 0056 33.38V2.796A2.804 2.804 0 0053.195 0zM1.65 8.248V2.796c0-.635.518-1.151 1.155-1.151h50.39c.637 0 1.155.516 1.155 1.151v5.452H1.65z"
            fill="#fff" />
    </g>
</svg>